<svg width="22" height="21" viewBox="0 0 22 21" fill="none" xmlns="http://www.w3.org/2000/svg">
<g filter="url(#filter0_ii_1083_55108)">
<rect x="0.995117" y="0.5" width="20" height="20" rx="3.71429" fill="#2B2B2B"/>
<g clip-path="url(#clip0_1083_55108)">
<g filter="url(#filter1_d_1083_55108)">
<g filter="url(#filter2_i_1083_55108)">
<path d="M9.7378 11.2795V14.3156C9.7378 15.1202 9.7378 15.5225 9.48784 15.7724C9.23789 16.0224 8.83559 16.0224 8.03099 16.0224H7.57327C6.76867 16.0224 6.36637 16.0224 6.11641 15.7724C5.86646 15.5225 5.86646 15.1202 5.86646 14.3156V6.95677C5.86646 6.15217 5.86646 5.74987 6.11641 5.49992C6.36637 5.24996 6.76867 5.24996 7.57327 5.24996H8.1318C8.6515 5.24996 8.91135 5.24996 9.10605 5.35935C9.24256 5.43605 9.35534 5.54883 9.43203 5.68534C9.54143 5.88004 9.54143 6.13989 9.54143 6.65959V8.2857C9.54143 8.32185 9.57073 8.35115 9.60688 8.35115C9.63485 8.35115 9.65976 8.33358 9.66819 8.30691C9.88491 7.62128 9.8392 6.53952 10.888 5.6918C11.4818 5.30373 12.1738 5.1097 12.9639 5.1097C13.726 5.1097 14.3876 5.28503 14.9487 5.63569C15.5144 5.98168 15.9516 6.45859 16.2602 7.06641C16.5734 7.67423 16.7277 8.36854 16.7231 9.14936V9.88863C16.7231 10.6924 16.7231 11.0942 16.4735 11.3441C16.2239 11.594 15.822 11.5945 15.0183 11.5954L13.5685 11.5972C13.4358 11.5973 13.3057 11.5604 13.1928 11.4906C12.981 11.3595 12.8622 11.1259 12.8258 10.8796C12.7746 10.5326 12.6476 10.2474 12.4449 10.0241C12.1738 9.72024 11.795 9.56828 11.3088 9.56828C10.9908 9.56828 10.7126 9.63842 10.4742 9.77868C10.2404 9.91427 10.0604 10.1106 9.93417 10.3678C9.80793 10.6203 9.74248 10.9242 9.7378 11.2795Z" fill="white"/>
<path d="M9.7378 11.2795V14.3156C9.7378 15.1202 9.7378 15.5225 9.48784 15.7724C9.23789 16.0224 8.83559 16.0224 8.03099 16.0224H7.57327C6.76867 16.0224 6.36637 16.0224 6.11641 15.7724C5.86646 15.5225 5.86646 15.1202 5.86646 14.3156V6.95677C5.86646 6.15217 5.86646 5.74987 6.11641 5.49992C6.36637 5.24996 6.76867 5.24996 7.57327 5.24996H8.1318C8.6515 5.24996 8.91135 5.24996 9.10605 5.35935C9.24256 5.43605 9.35534 5.54883 9.43203 5.68534C9.54143 5.88004 9.54143 6.13989 9.54143 6.65959V8.2857C9.54143 8.32185 9.57073 8.35115 9.60688 8.35115C9.63485 8.35115 9.65976 8.33358 9.66819 8.30691C9.88491 7.62128 9.8392 6.53952 10.888 5.6918C11.4818 5.30373 12.1738 5.1097 12.9639 5.1097C13.726 5.1097 14.3876 5.28503 14.9487 5.63569C15.5144 5.98168 15.9516 6.45859 16.2602 7.06641C16.5734 7.67423 16.7277 8.36854 16.7231 9.14936V9.88863C16.7231 10.6924 16.7231 11.0942 16.4735 11.3441C16.2239 11.594 15.822 11.5945 15.0183 11.5954L13.5685 11.5972C13.4358 11.5973 13.3057 11.5604 13.1928 11.4906C12.981 11.3595 12.8622 11.1259 12.8258 10.8796C12.7746 10.5326 12.6476 10.2474 12.4449 10.0241C12.1738 9.72024 11.795 9.56828 11.3088 9.56828C10.9908 9.56828 10.7126 9.63842 10.4742 9.77868C10.2404 9.91427 10.0604 10.1106 9.93417 10.3678C9.80793 10.6203 9.74248 10.9242 9.7378 11.2795Z" fill="white"/>
<mask id="mask0_1083_55108" style="mask-type:alpha" maskUnits="userSpaceOnUse" x="5" y="5" width="12" height="12">
<path d="M9.7378 11.2795V14.3156C9.7378 15.1202 9.7378 15.5225 9.48784 15.7724C9.23789 16.0224 8.83559 16.0224 8.03099 16.0224H7.57327C6.76867 16.0224 6.36637 16.0224 6.11641 15.7724C5.86646 15.5225 5.86646 15.1202 5.86646 14.3156V6.95677C5.86646 6.15217 5.86646 5.74987 6.11641 5.49992C6.36637 5.24996 6.76867 5.24996 7.57327 5.24996H8.1318C8.6515 5.24996 8.91135 5.24996 9.10605 5.35935C9.24256 5.43605 9.35534 5.54883 9.43203 5.68534C9.54143 5.88004 9.54143 6.13989 9.54143 6.65959V8.2857C9.54143 8.32185 9.57073 8.35115 9.60688 8.35115C9.63485 8.35115 9.65976 8.33358 9.66819 8.30691C9.88491 7.62128 9.8392 6.53952 10.888 5.6918C11.4818 5.30373 12.1738 5.1097 12.9639 5.1097C13.726 5.1097 14.3876 5.28503 14.9487 5.63569C15.5144 5.98168 15.9516 6.45859 16.2602 7.06641C16.5734 7.67423 16.7277 8.36854 16.7231 9.14936V9.88863C16.7231 10.6924 16.7231 11.0942 16.4735 11.3441C16.2239 11.594 15.822 11.5945 15.0183 11.5954L13.5685 11.5972C13.4358 11.5973 13.3057 11.5604 13.1928 11.4906C12.981 11.3595 12.8622 11.1259 12.8258 10.8796C12.7746 10.5326 12.6476 10.2474 12.4449 10.0241C12.1738 9.72024 11.795 9.56828 11.3088 9.56828C10.9908 9.56828 10.7126 9.63842 10.4742 9.77868C10.2404 9.91427 10.0604 10.1106 9.93417 10.3678C9.80793 10.6203 9.74248 10.9242 9.7378 11.2795Z" fill="white"/>
</mask>
<g mask="url(#mask0_1083_55108)">
<g filter="url(#filter3_f_1083_55108)">
<path d="M12.7223 11.3189C16.6688 12.3696 16.5491 7.31038 15.1421 5.60402L18.4323 7.21763L17.7325 12.8844C12.9252 12.7454 7.39105 9.89945 12.7223 11.3189Z" fill="#5A5A5A"/>
</g>
<g filter="url(#filter4_f_1083_55108)">
<path d="M3.20775 6.66708C7.15428 7.71781 7.03453 2.65861 5.62753 0.952248L8.91774 2.56586L7.31911 7.39474C2.51182 7.25571 -2.12348 5.24768 3.20775 6.66708Z" fill="white"/>
</g>
<g filter="url(#filter5_f_1083_55108)">
<path d="M10.4985 5.67036C10.9565 2.54492 12.606 4.43988 11.199 2.73352L13.7586 3.99986L13.0462 7.73682C8.23888 7.5978 10.2381 7.44692 10.4985 5.67036Z" fill="white"/>
</g>
<g filter="url(#filter6_f_1083_55108)">
<path d="M5.80123 15.4462C11.4299 15.6326 6.9395 9.46578 11.2984 9.55256L11.5112 11.345L10.8114 17.0118C6.00415 16.8728 0.287302 15.2636 5.80123 15.4462Z" fill="#5A5A5A"/>
</g>
</g>
<rect x="12.8474" y="13.1478" width="3.87101" height="2.88554" rx="0.853406" fill="white"/>
<mask id="mask1_1083_55108" style="mask-type:alpha" maskUnits="userSpaceOnUse" x="12" y="13" width="5" height="4">
<rect x="12.8474" y="13.1478" width="3.87101" height="2.88554" rx="0.853406" fill="white"/>
</mask>
<g mask="url(#mask1_1083_55108)">
<g filter="url(#filter7_f_1083_55108)">
<path d="M12.7496 15.4571C17.8468 16.2217 15.8784 13.5898 16.2699 11.9528L18.6855 11.6985L17.9857 17.3653C13.1784 17.2263 7.29373 14.6388 12.7496 15.4571Z" fill="#B3B3B3"/>
</g>
</g>
</g>
<g opacity="0.8" filter="url(#filter8_f_1083_55108)">
<path d="M5.98826 4.34762L6.12949 4.91257C6.15705 5.0228 6.17083 5.07792 6.19953 5.12278C6.22492 5.16245 6.25861 5.19614 6.29828 5.22153C6.34313 5.25023 6.39825 5.26401 6.50849 5.29157L7.07344 5.4328L6.50849 5.57404C6.39825 5.6016 6.34313 5.61538 6.29828 5.64408C6.25861 5.66946 6.22492 5.70315 6.19953 5.74283C6.17083 5.78768 6.15705 5.8428 6.12949 5.95304L5.98826 6.51798L5.84702 5.95304C5.81946 5.8428 5.80568 5.78768 5.77698 5.74283C5.75159 5.70315 5.7179 5.66946 5.67823 5.64408C5.63338 5.61538 5.57826 5.6016 5.46802 5.57404L4.90308 5.4328L5.46802 5.29157C5.57826 5.26401 5.63338 5.25023 5.67823 5.22153C5.7179 5.19614 5.75159 5.16245 5.77698 5.12278C5.80568 5.07792 5.81946 5.0228 5.84702 4.91257L5.98826 4.34762Z" fill="white"/>
<path d="M5.98826 4.34762L6.12949 4.91257C6.15705 5.0228 6.17083 5.07792 6.19953 5.12278C6.22492 5.16245 6.25861 5.19614 6.29828 5.22153C6.34313 5.25023 6.39825 5.26401 6.50849 5.29157L7.07344 5.4328L6.50849 5.57404C6.39825 5.6016 6.34313 5.61538 6.29828 5.64408C6.25861 5.66946 6.22492 5.70315 6.19953 5.74283C6.17083 5.78768 6.15705 5.8428 6.12949 5.95304L5.98826 6.51798L5.84702 5.95304C5.81946 5.8428 5.80568 5.78768 5.77698 5.74283C5.75159 5.70315 5.7179 5.66946 5.67823 5.64408C5.63338 5.61538 5.57826 5.6016 5.46802 5.57404L4.90308 5.4328L5.46802 5.29157C5.57826 5.26401 5.63338 5.25023 5.67823 5.22153C5.7179 5.19614 5.75159 5.16245 5.77698 5.12278C5.80568 5.07792 5.81946 5.0228 5.84702 4.91257L5.98826 4.34762Z" fill="white"/>
</g>
<g opacity="0.5" filter="url(#filter9_f_1083_55108)">
<path d="M5.98835 4.72083L6.08101 5.09148C6.09909 5.16381 6.10813 5.19997 6.12696 5.2294C6.14362 5.25543 6.16572 5.27753 6.19175 5.29419C6.22118 5.31302 6.25734 5.32206 6.32967 5.34014L6.70032 5.4328L6.32967 5.52547C6.25734 5.54355 6.22118 5.55259 6.19175 5.57142C6.16572 5.58808 6.14362 5.61018 6.12696 5.63621C6.10813 5.66564 6.09909 5.7018 6.08101 5.77413L5.98835 6.14478L5.89568 5.77413C5.8776 5.7018 5.86856 5.66564 5.84973 5.63621C5.83307 5.61018 5.81097 5.58808 5.78494 5.57142C5.75551 5.55259 5.71935 5.54355 5.64702 5.52547L5.27637 5.4328L5.64702 5.34014C5.71935 5.32206 5.75551 5.31302 5.78494 5.29419C5.81097 5.27753 5.83307 5.25543 5.84973 5.2294C5.86856 5.19997 5.8776 5.16381 5.89568 5.09148L5.98835 4.72083Z" fill="white"/>
<path d="M5.98835 4.72083L6.08101 5.09148C6.09909 5.16381 6.10813 5.19997 6.12696 5.2294C6.14362 5.25543 6.16572 5.27753 6.19175 5.29419C6.22118 5.31302 6.25734 5.32206 6.32967 5.34014L6.70032 5.4328L6.32967 5.52547C6.25734 5.54355 6.22118 5.55259 6.19175 5.57142C6.16572 5.58808 6.14362 5.61018 6.12696 5.63621C6.10813 5.66564 6.09909 5.7018 6.08101 5.77413L5.98835 6.14478L5.89568 5.77413C5.8776 5.7018 5.86856 5.66564 5.84973 5.63621C5.83307 5.61018 5.81097 5.58808 5.78494 5.57142C5.75551 5.55259 5.71935 5.54355 5.64702 5.52547L5.27637 5.4328L5.64702 5.34014C5.71935 5.32206 5.75551 5.31302 5.78494 5.29419C5.81097 5.27753 5.83307 5.25543 5.84973 5.2294C5.86856 5.19997 5.8776 5.16381 5.89568 5.09148L5.98835 4.72083Z" fill="white"/>
</g>
<g opacity="0.6" filter="url(#filter10_f_1083_55108)">
<path d="M6.03168 5.2323L6.06342 5.35924C6.06961 5.38401 6.07271 5.3964 6.07916 5.40648C6.08486 5.41539 6.09243 5.42296 6.10135 5.42867C6.11142 5.43512 6.12381 5.43821 6.14858 5.4444L6.27552 5.47614L6.14858 5.50788C6.12381 5.51407 6.11142 5.51717 6.10135 5.52361C6.09243 5.52932 6.08486 5.53689 6.07916 5.5458C6.07271 5.55588 6.06961 5.56827 6.06342 5.59304L6.03168 5.71998L5.99995 5.59304C5.99375 5.56827 5.99066 5.55588 5.98421 5.5458C5.9785 5.53689 5.97093 5.52932 5.96202 5.52361C5.95194 5.51717 5.93956 5.51407 5.91479 5.50788L5.78784 5.47614L5.91479 5.4444C5.93956 5.43821 5.95194 5.43512 5.96202 5.42867C5.97093 5.42296 5.9785 5.41539 5.98421 5.40648C5.99066 5.3964 5.99375 5.38401 5.99995 5.35924L6.03168 5.2323Z" fill="white"/>
<path d="M6.03168 5.2323L6.06342 5.35924C6.06961 5.38401 6.07271 5.3964 6.07916 5.40648C6.08486 5.41539 6.09243 5.42296 6.10135 5.42867C6.11142 5.43512 6.12381 5.43821 6.14858 5.4444L6.27552 5.47614L6.14858 5.50788C6.12381 5.51407 6.11142 5.51717 6.10135 5.52361C6.09243 5.52932 6.08486 5.53689 6.07916 5.5458C6.07271 5.55588 6.06961 5.56827 6.06342 5.59304L6.03168 5.71998L5.99995 5.59304C5.99375 5.56827 5.99066 5.55588 5.98421 5.5458C5.9785 5.53689 5.97093 5.52932 5.96202 5.52361C5.95194 5.51717 5.93956 5.51407 5.91479 5.50788L5.78784 5.47614L5.91479 5.4444C5.93956 5.43821 5.95194 5.43512 5.96202 5.42867C5.97093 5.42296 5.9785 5.41539 5.98421 5.40648C5.99066 5.3964 5.99375 5.38401 5.99995 5.35924L6.03168 5.2323Z" fill="white"/>
</g>
<g opacity="0.8" filter="url(#filter11_f_1083_55108)">
<path d="M13.0967 10.3783L13.2379 10.9432C13.2654 11.0535 13.2792 11.1086 13.3079 11.1534C13.3333 11.1931 13.367 11.2268 13.4067 11.2522C13.4515 11.2809 13.5067 11.2947 13.6169 11.3222L14.1818 11.4635L13.6169 11.6047C13.5067 11.6323 13.4515 11.646 13.4067 11.6747C13.367 11.7001 13.3333 11.7338 13.3079 11.7735C13.2792 11.8183 13.2654 11.8735 13.2379 11.9837L13.0967 12.5487L12.9554 11.9837C12.9279 11.8735 12.9141 11.8183 12.8854 11.7735C12.86 11.7338 12.8263 11.7001 12.7866 11.6747C12.7418 11.646 12.6867 11.6323 12.5764 11.6047L12.0115 11.4635L12.5764 11.3222C12.6867 11.2947 12.7418 11.2809 12.7866 11.2522C12.8263 11.2268 12.86 11.1931 12.8854 11.1534C12.9141 11.1086 12.9279 11.0535 12.9554 10.9432L13.0967 10.3783Z" fill="white"/>
<path d="M13.0967 10.3783L13.2379 10.9432C13.2654 11.0535 13.2792 11.1086 13.3079 11.1534C13.3333 11.1931 13.367 11.2268 13.4067 11.2522C13.4515 11.2809 13.5067 11.2947 13.6169 11.3222L14.1818 11.4635L13.6169 11.6047C13.5067 11.6323 13.4515 11.646 13.4067 11.6747C13.367 11.7001 13.3333 11.7338 13.3079 11.7735C13.2792 11.8183 13.2654 11.8735 13.2379 11.9837L13.0967 12.5487L12.9554 11.9837C12.9279 11.8735 12.9141 11.8183 12.8854 11.7735C12.86 11.7338 12.8263 11.7001 12.7866 11.6747C12.7418 11.646 12.6867 11.6323 12.5764 11.6047L12.0115 11.4635L12.5764 11.3222C12.6867 11.2947 12.7418 11.2809 12.7866 11.2522C12.8263 11.2268 12.86 11.1931 12.8854 11.1534C12.9141 11.1086 12.9279 11.0535 12.9554 10.9432L13.0967 10.3783Z" fill="white"/>
</g>
<g opacity="0.5" filter="url(#filter12_f_1083_55108)">
<path d="M13.0967 10.7515L13.1894 11.1222C13.2075 11.1945 13.2165 11.2306 13.2354 11.2601C13.252 11.2861 13.2741 11.3082 13.3001 11.3249C13.3296 11.3437 13.3657 11.3527 13.4381 11.3708L13.8087 11.4635L13.4381 11.5561C13.3657 11.5742 13.3296 11.5833 13.3001 11.6021C13.2741 11.6187 13.252 11.6409 13.2354 11.6669C13.2165 11.6963 13.2075 11.7325 13.1894 11.8048L13.0967 12.1755L13.0041 11.8048C12.986 11.7325 12.977 11.6963 12.9581 11.6669C12.9415 11.6409 12.9194 11.6187 12.8933 11.6021C12.8639 11.5833 12.8277 11.5742 12.7554 11.5561L12.3848 11.4635L12.7554 11.3708C12.8277 11.3527 12.8639 11.3437 12.8933 11.3249C12.9194 11.3082 12.9415 11.2861 12.9581 11.2601C12.977 11.2306 12.986 11.1945 13.0041 11.1222L13.0967 10.7515Z" fill="white"/>
<path d="M13.0967 10.7515L13.1894 11.1222C13.2075 11.1945 13.2165 11.2306 13.2354 11.2601C13.252 11.2861 13.2741 11.3082 13.3001 11.3249C13.3296 11.3437 13.3657 11.3527 13.4381 11.3708L13.8087 11.4635L13.4381 11.5561C13.3657 11.5742 13.3296 11.5833 13.3001 11.6021C13.2741 11.6187 13.252 11.6409 13.2354 11.6669C13.2165 11.6963 13.2075 11.7325 13.1894 11.8048L13.0967 12.1755L13.0041 11.8048C12.986 11.7325 12.977 11.6963 12.9581 11.6669C12.9415 11.6409 12.9194 11.6187 12.8933 11.6021C12.8639 11.5833 12.8277 11.5742 12.7554 11.5561L12.3848 11.4635L12.7554 11.3708C12.8277 11.3527 12.8639 11.3437 12.8933 11.3249C12.9194 11.3082 12.9415 11.2861 12.9581 11.2601C12.977 11.2306 12.986 11.1945 13.0041 11.1222L13.0967 10.7515Z" fill="white"/>
</g>
<g opacity="0.6" filter="url(#filter13_f_1083_55108)">
<path d="M13.0966 11.2196L13.1284 11.3466C13.1346 11.3713 13.1376 11.3837 13.1441 11.3938C13.1498 11.4027 13.1574 11.4103 13.1663 11.416C13.1764 11.4224 13.1888 11.4255 13.2135 11.4317L13.3405 11.4635L13.2135 11.4952C13.1888 11.5014 13.1764 11.5045 13.1663 11.5109C13.1574 11.5166 13.1498 11.5242 13.1441 11.5331C13.1376 11.5432 13.1346 11.5556 13.1284 11.5804L13.0966 11.7073L13.0649 11.5804C13.0587 11.5556 13.0556 11.5432 13.0492 11.5331C13.0434 11.5242 13.0359 11.5166 13.027 11.5109C13.0169 11.5045 13.0045 11.5014 12.9797 11.4952L12.8528 11.4635L12.9797 11.4317C13.0045 11.4255 13.0169 11.4224 13.027 11.416C13.0359 11.4103 13.0434 11.4027 13.0492 11.3938C13.0556 11.3837 13.0587 11.3713 13.0649 11.3466L13.0966 11.2196Z" fill="white"/>
<path d="M13.0966 11.2196L13.1284 11.3466C13.1346 11.3713 13.1376 11.3837 13.1441 11.3938C13.1498 11.4027 13.1574 11.4103 13.1663 11.416C13.1764 11.4224 13.1888 11.4255 13.2135 11.4317L13.3405 11.4635L13.2135 11.4952C13.1888 11.5014 13.1764 11.5045 13.1663 11.5109C13.1574 11.5166 13.1498 11.5242 13.1441 11.5331C13.1376 11.5432 13.1346 11.5556 13.1284 11.5804L13.0966 11.7073L13.0649 11.5804C13.0587 11.5556 13.0556 11.5432 13.0492 11.5331C13.0434 11.5242 13.0359 11.5166 13.027 11.5109C13.0169 11.5045 13.0045 11.5014 12.9797 11.4952L12.8528 11.4635L12.9797 11.4317C13.0045 11.4255 13.0169 11.4224 13.027 11.416C13.0359 11.4103 13.0434 11.4027 13.0492 11.3938C13.0556 11.3837 13.0587 11.3713 13.0649 11.3466L13.0966 11.2196Z" fill="white"/>
</g>
</g>
</g>
</g>
<path d="M4.74064 1.07294L3.77583 1.36229C3.73349 1.37499 3.74741 1.43814 3.79116 1.43185L4.99264 1.25929C4.99432 1.25905 4.99602 1.25893 4.99772 1.25893H16.3592L17.9319 1.46787C17.9727 1.47329 17.9888 1.41678 17.9513 1.39989L17.2281 1.07457C17.2235 1.0725 17.2185 1.07143 17.2135 1.07143H4.7509C4.74742 1.07143 4.74397 1.07194 4.74064 1.07294Z" fill="url(#paint0_linear_1083_55108)"/>
<path d="M1.65576 17.8214C1.78076 18.6071 2.69148 19.3571 2.69148 19.3571L1.65576 17.8214Z" fill="white"/>
<g opacity="0.6" filter="url(#filter14_f_1083_55108)">
<path d="M20.4595 17.2312L20.4595 3.99488C20.4595 3.11674 19.839 2.13428 19.4595 1.76786C19.2062 1.52327 18.5083 1.51673 18.1913 1.5274C18.1531 1.52869 18.1461 1.57851 18.182 1.59182L18.6559 1.76786C18.6559 1.76786 18.8166 1.64288 19.3523 2.14288C19.8581 2.61494 20.0831 3.93332 20.0931 3.9928C20.0934 3.9947 20.0934 3.99585 20.0934 3.99778L20.0934 16.5328L20.0934 16.5337C20.0927 16.5503 20.0406 17.6997 19.7095 18.3572C19.6451 18.4849 19.5586 18.6171 19.4607 18.7475C19.4454 18.7679 19.5463 18.8727 19.5666 18.8572C20.1209 18.4315 20.437 17.3137 20.4583 17.2364C20.4591 17.2334 20.4595 17.2343 20.4595 17.2312Z" fill="url(#paint1_linear_1083_55108)"/>
</g>
<path d="M19.9502 2.00333C19.5727 1.44792 18.6076 1.20185 18.6076 1.20185L19.9502 2.00333Z" fill="white"/>
<path d="M18.418 2.13761C17.3301 1.36727 15.4237 1.53571 15.4237 1.53571L18.418 2.13761Z" fill="url(#paint2_linear_1083_55108)"/>
<path d="M19.3176 19.1596C19.0135 19.5132 18.3283 19.6072 18.3283 19.6072L19.3176 19.1596Z" fill="white"/>
<rect x="0.85226" y="0.357143" width="20.2857" height="20.2857" rx="3.85714" stroke="white" stroke-opacity="0.3" stroke-width="0.285714"/>
<defs>
<filter id="filter0_ii_1083_55108" x="-0.862026" y="-0.5" width="21.8571" height="21.7143" filterUnits="userSpaceOnUse" color-interpolation-filters="sRGB">
<feFlood flood-opacity="0" result="BackgroundImageFix"/>
<feBlend mode="normal" in="SourceGraphic" in2="BackgroundImageFix" result="shape"/>
<feColorMatrix in="SourceAlpha" type="matrix" values="0 0 0 0 0 0 0 0 0 0 0 0 0 0 0 0 0 0 127 0" result="hardAlpha"/>
<feOffset dy="-1"/>
<feGaussianBlur stdDeviation="0.928571"/>
<feComposite in2="hardAlpha" operator="arithmetic" k2="-1" k3="1"/>
<feColorMatrix type="matrix" values="0 0 0 0 0 0 0 0 0 0 0 0 0 0 0 0 0 0 1 0"/>
<feBlend mode="normal" in2="shape" result="effect1_innerShadow_1083_55108"/>
<feColorMatrix in="SourceAlpha" type="matrix" values="0 0 0 0 0 0 0 0 0 0 0 0 0 0 0 0 0 0 127 0" result="hardAlpha"/>
<feOffset dx="-2" dy="0.714286"/>
<feGaussianBlur stdDeviation="0.928571"/>
<feComposite in2="hardAlpha" operator="arithmetic" k2="-1" k3="1"/>
<feColorMatrix type="matrix" values="0 0 0 0 0 0 0 0 0 0 0 0 0 0 0 0 0 0 1 0"/>
<feBlend mode="normal" in2="effect1_innerShadow_1083_55108" result="effect2_innerShadow_1083_55108"/>
</filter>
<filter id="filter1_d_1083_55108" x="0.474505" y="2.34762" width="18.3915" height="18.2571" filterUnits="userSpaceOnUse" color-interpolation-filters="sRGB">
<feFlood flood-opacity="0" result="BackgroundImageFix"/>
<feColorMatrix in="SourceAlpha" type="matrix" values="0 0 0 0 0 0 0 0 0 0 0 0 0 0 0 0 0 0 127 0" result="hardAlpha"/>
<feOffset dx="-1.14286" dy="1.28571"/>
<feGaussianBlur stdDeviation="1.64286"/>
<feComposite in2="hardAlpha" operator="out"/>
<feColorMatrix type="matrix" values="0 0 0 0 0 0 0 0 0 0 0 0 0 0 0 0 0 0 1 0"/>
<feBlend mode="normal" in2="BackgroundImageFix" result="effect1_dropShadow_1083_55108"/>
<feBlend mode="normal" in="SourceGraphic" in2="effect1_dropShadow_1083_55108" result="shape"/>
</filter>
<filter id="filter2_i_1083_55108" x="5.62263" y="4.50013" width="11.1005" height="11.5332" filterUnits="userSpaceOnUse" color-interpolation-filters="sRGB">
<feFlood flood-opacity="0" result="BackgroundImageFix"/>
<feBlend mode="normal" in="SourceGraphic" in2="BackgroundImageFix" result="shape"/>
<feColorMatrix in="SourceAlpha" type="matrix" values="0 0 0 0 0 0 0 0 0 0 0 0 0 0 0 0 0 0 127 0" result="hardAlpha"/>
<feOffset dx="-0.243827" dy="-0.609567"/>
<feGaussianBlur stdDeviation="0.670524"/>
<feComposite in2="hardAlpha" operator="arithmetic" k2="-1" k3="1"/>
<feColorMatrix type="matrix" values="0 0 0 0 0 0 0 0 0 0 0 0 0 0 0 0 0 0 0.45 0"/>
<feBlend mode="normal" in2="shape" result="effect1_innerShadow_1083_55108"/>
</filter>
<filter id="filter3_f_1083_55108" x="8.11526" y="3.17655" width="12.7446" height="12.1354" filterUnits="userSpaceOnUse" color-interpolation-filters="sRGB">
<feFlood flood-opacity="0" result="BackgroundImageFix"/>
<feBlend mode="normal" in="SourceGraphic" in2="BackgroundImageFix" result="shape"/>
<feGaussianBlur stdDeviation="1.21373" result="effect1_foregroundBlur_1083_55108"/>
</filter>
<filter id="filter4_f_1083_55108" x="-1.59714" y="-1.47522" width="12.9423" height="11.2974" filterUnits="userSpaceOnUse" color-interpolation-filters="sRGB">
<feFlood flood-opacity="0" result="BackgroundImageFix"/>
<feBlend mode="normal" in="SourceGraphic" in2="BackgroundImageFix" result="shape"/>
<feGaussianBlur stdDeviation="1.21373" result="effect1_foregroundBlur_1083_55108"/>
</filter>
<filter id="filter5_f_1083_55108" x="7.43875" y="0.306056" width="8.74726" height="9.85823" filterUnits="userSpaceOnUse" color-interpolation-filters="sRGB">
<feFlood flood-opacity="0" result="BackgroundImageFix"/>
<feBlend mode="normal" in="SourceGraphic" in2="BackgroundImageFix" result="shape"/>
<feGaussianBlur stdDeviation="1.21373" result="effect1_foregroundBlur_1083_55108"/>
</filter>
<filter id="filter6_f_1083_55108" x="1.11404" y="7.12419" width="12.8247" height="12.3151" filterUnits="userSpaceOnUse" color-interpolation-filters="sRGB">
<feFlood flood-opacity="0" result="BackgroundImageFix"/>
<feBlend mode="normal" in="SourceGraphic" in2="BackgroundImageFix" result="shape"/>
<feGaussianBlur stdDeviation="1.21373" result="effect1_foregroundBlur_1083_55108"/>
</filter>
<filter id="filter7_f_1083_55108" x="8.13333" y="9.27104" width="12.9797" height="10.5217" filterUnits="userSpaceOnUse" color-interpolation-filters="sRGB">
<feFlood flood-opacity="0" result="BackgroundImageFix"/>
<feBlend mode="normal" in="SourceGraphic" in2="BackgroundImageFix" result="shape"/>
<feGaussianBlur stdDeviation="1.21373" result="effect1_foregroundBlur_1083_55108"/>
</filter>
<filter id="filter8_f_1083_55108" x="4.03614" y="3.48068" width="3.90429" height="3.90424" filterUnits="userSpaceOnUse" color-interpolation-filters="sRGB">
<feFlood flood-opacity="0" result="BackgroundImageFix"/>
<feBlend mode="normal" in="SourceGraphic" in2="BackgroundImageFix" result="shape"/>
<feGaussianBlur stdDeviation="0.43347" result="effect1_foregroundBlur_1083_55108"/>
</filter>
<filter id="filter9_f_1083_55108" x="5.01629" y="4.46074" width="1.94424" height="1.94412" filterUnits="userSpaceOnUse" color-interpolation-filters="sRGB">
<feFlood flood-opacity="0" result="BackgroundImageFix"/>
<feBlend mode="normal" in="SourceGraphic" in2="BackgroundImageFix" result="shape"/>
<feGaussianBlur stdDeviation="0.130041" result="effect1_foregroundBlur_1083_55108"/>
</filter>
<filter id="filter10_f_1083_55108" x="5.74449" y="5.18895" width="0.574487" height="0.574376" filterUnits="userSpaceOnUse" color-interpolation-filters="sRGB">
<feFlood flood-opacity="0" result="BackgroundImageFix"/>
<feBlend mode="normal" in="SourceGraphic" in2="BackgroundImageFix" result="shape"/>
<feGaussianBlur stdDeviation="0.0216735" result="effect1_foregroundBlur_1083_55108"/>
</filter>
<filter id="filter11_f_1083_55108" x="10.7978" y="9.16458" width="4.59784" height="4.59779" filterUnits="userSpaceOnUse" color-interpolation-filters="sRGB">
<feFlood flood-opacity="0" result="BackgroundImageFix"/>
<feBlend mode="normal" in="SourceGraphic" in2="BackgroundImageFix" result="shape"/>
<feGaussianBlur stdDeviation="0.606858" result="effect1_foregroundBlur_1083_55108"/>
</filter>
<filter id="filter12_f_1083_55108" x="12.1247" y="10.4914" width="1.94424" height="1.94412" filterUnits="userSpaceOnUse" color-interpolation-filters="sRGB">
<feFlood flood-opacity="0" result="BackgroundImageFix"/>
<feBlend mode="normal" in="SourceGraphic" in2="BackgroundImageFix" result="shape"/>
<feGaussianBlur stdDeviation="0.130041" result="effect1_foregroundBlur_1083_55108"/>
</filter>
<filter id="filter13_f_1083_55108" x="12.8094" y="11.1763" width="0.574487" height="0.574376" filterUnits="userSpaceOnUse" color-interpolation-filters="sRGB">
<feFlood flood-opacity="0" result="BackgroundImageFix"/>
<feBlend mode="normal" in="SourceGraphic" in2="BackgroundImageFix" result="shape"/>
<feGaussianBlur stdDeviation="0.0216735" result="effect1_foregroundBlur_1083_55108"/>
</filter>
<filter id="filter14_f_1083_55108" x="17.7299" y="1.09593" width="3.15817" height="18.1914" filterUnits="userSpaceOnUse" color-interpolation-filters="sRGB">
<feFlood flood-opacity="0" result="BackgroundImageFix"/>
<feBlend mode="normal" in="SourceGraphic" in2="BackgroundImageFix" result="shape"/>
<feGaussianBlur stdDeviation="0.214286" result="effect1_foregroundBlur_1083_55108"/>
</filter>
<linearGradient id="paint0_linear_1083_55108" x1="10.7452" y1="1.07143" x2="10.7452" y2="1.5" gradientUnits="userSpaceOnUse">
<stop stop-color="white"/>
<stop offset="1" stop-color="white" stop-opacity="0"/>
</linearGradient>
<linearGradient id="paint1_linear_1083_55108" x1="20.2809" y1="10.3393" x2="18.3881" y2="10.4286" gradientUnits="userSpaceOnUse">
<stop stop-color="white"/>
<stop offset="1" stop-color="white" stop-opacity="0"/>
</linearGradient>
<linearGradient id="paint2_linear_1083_55108" x1="18.1404" y1="2.35113" x2="15.5248" y2="1.60965" gradientUnits="userSpaceOnUse">
<stop stop-color="white"/>
<stop offset="1" stop-color="white" stop-opacity="0"/>
</linearGradient>
<clipPath id="clip0_1083_55108">
<rect x="1.85229" y="1.35714" width="18.2857" height="18.2857" rx="4.06349" fill="white"/>
</clipPath>
</defs>
</svg>
